<svg width="16" height="16" viewBox="0 0 16 16" fill="none" xmlns="http://www.w3.org/2000/svg">
<path d="M10.3875 6.48777L7.19382 3.20627C6.91955 2.93124 6.48073 2.93124 6.21256 3.20627C5.9383 3.48754 5.9383 3.93757 6.20647 4.21884C6.20647 4.21884 6.20647 4.21884 6.21256 4.2251L9.41841 7.4941C9.68658 7.76912 9.69267 8.22541 9.41841 8.50043C9.41841 8.50043 9.41841 8.50043 9.41231 8.50668L6.20647 11.7757C5.9322 12.0507 5.9322 12.507 6.20037 12.7883C6.46854 13.0695 6.91346 13.0695 7.18772 12.7945L10.3875 9.513C11.2042 8.67544 11.2042 7.32534 10.3875 6.48777Z" fill="#222222"/>
</svg>
