<svg width="24" height="24" viewBox="0 0 24 24" fill="none" xmlns="http://www.w3.org/2000/svg">
<g clip-path="url(#clip0_567_2509)">
<path d="M4.98498 22.01C6.09498 22.01 6.98498 21.11 6.98498 20.01V14C6.98498 12.89 6.08498 12 4.98498 12V11C4.98498 7.12999 8.12498 3.98999 11.995 3.98999C15.865 3.98999 19.005 7.12999 19.005 11V12C17.895 12 17.005 12.9 17.005 14V20.01H14.005C13.455 20.01 13.005 20.46 13.005 21.01C13.005 21.56 13.455 22.01 14.005 22.01H19.015C21.775 22 24.015 19.75 24.005 16.99C23.995 15.01 22.825 13.22 21.015 12.42V11C21.005 6.01999 16.975 1.98999 11.995 1.98999C7.01498 1.98999 2.98498 6.01999 2.98498 11V12.43C0.45498 13.54 -0.69502 16.5 0.42498 19.03C1.21498 20.84 3.00498 22.01 4.98498 22.01Z" fill="#1E64AE"/>
</g>
<defs>
<clipPath id="clip0_567_2509">
<rect width="24" height="24" fill="white"/>
</clipPath>
</defs>
</svg>
