<svg width="24" height="24" viewBox="0 0 24 24" fill="none" xmlns="http://www.w3.org/2000/svg">
<path d="M23.95 5.54004L15.53 13.96C13.58 15.91 10.41 15.91 8.46 13.96L0.05 5.54004C0.03 5.70004 0 5.84004 0 6.00004V18C0 20.76 2.24 23 5 23H19C21.76 23 24 20.76 24 18V6.00004C24 5.84004 23.97 5.70004 23.95 5.54004Z" fill="#1E64AE"/>
<path d="M14.1202 12.55L23.2502 3.41C22.3602 1.92 20.7402 1 19.0002 1H5.00023C3.26023 1 1.64023 1.92 0.740234 3.41L9.87023 12.55C11.0502 13.71 12.9502 13.71 14.1202 12.55Z" fill="#1E64AE"/>
</svg>
