<svg width="24" height="24" viewBox="0 0 24 24" fill="none" xmlns="http://www.w3.org/2000/svg">
<path d="M19.0715 2.94703C17.1824 1.04672 14.6713 0 12 0C9.32914 0 6.81761 1.04672 4.92895 2.94703C3.0403 4.84734 2 7.37437 2 10.0617C2 12.7491 3.0403 15.2761 4.92895 17.1764L11.5062 23.7938C11.6427 23.9311 11.8216 23.9995 12.0005 23.9995C12.1794 23.9995 12.3583 23.9311 12.4948 23.7938L19.0715 17.1764C20.9602 15.2761 22.0005 12.7491 22.0005 10.0617C22 7.37391 20.9602 4.84734 19.0715 2.94703ZM15.1409 13.2216C14.3019 14.0658 13.1866 14.5303 12.0005 14.5303C10.8143 14.5303 9.69904 14.0653 8.86 13.2216C8.02096 12.3773 7.55928 11.2552 7.55928 10.0617C7.55928 8.86828 8.02143 7.74609 8.86 6.90188C9.69904 6.05766 10.8143 5.59312 12.0005 5.59312C13.1866 5.59312 14.3019 6.05813 15.1409 6.90188C15.98 7.74609 16.4416 8.86828 16.4416 10.0617C16.4416 11.2552 15.9795 12.3773 15.1409 13.2216Z" fill="#1E64AE"/>
</svg>
