<svg width="24" height="24" viewBox="0 0 24 24" fill="none" xmlns="http://www.w3.org/2000/svg">
<g clip-path="url(#clip0_520_2353)">
<path d="M22.9797 10.9997C22.4297 10.9997 21.9797 10.5497 21.9797 9.9997C21.9797 5.5797 18.3997 2.0097 13.9797 1.9997C13.4297 1.9997 12.9797 1.5497 12.9797 0.9997C12.9797 0.4497 13.4297 -0.000299675 13.9797 -0.000299675C19.4997 0.00970033 23.9697 4.4797 23.9797 9.9997C23.9797 10.5497 23.5297 10.9997 22.9797 10.9997ZM19.9797 9.9997C19.9797 6.6897 17.2897 3.9997 13.9797 3.9997C13.4297 3.9997 12.9797 4.4497 12.9797 4.9997C12.9797 5.5497 13.4297 5.9997 13.9797 5.9997C16.1897 5.9997 17.9797 7.7897 17.9797 9.9997C17.9797 10.5497 18.4297 10.9997 18.9797 10.9997C19.5297 10.9997 19.9797 10.5497 19.9797 9.9997ZM22.1597 22.1597L23.0697 21.1097C24.2797 19.8997 24.2797 17.9397 23.0697 16.7297C23.0397 16.6997 20.6297 14.8497 20.6297 14.8497C19.4297 13.7097 17.5497 13.7097 16.3497 14.8597L14.4397 16.4697C11.2997 15.1697 8.7997 12.6697 7.5097 9.5297L9.1097 7.6297C10.2597 6.4297 10.2597 4.5497 9.1197 3.3497C9.1197 3.3497 7.2697 0.9497 7.2397 0.9197C6.0597 -0.2903 4.1297 -0.3103 2.9197 0.8597L1.7697 1.8597C-5.0203 9.7397 9.59969 24.2597 17.7397 23.9997C19.3997 24.0097 20.9997 23.3397 22.1597 22.1597Z" fill="#1E64AE"/>
</g>
<defs>
<clipPath id="clip0_520_2353">
<rect width="24" height="24" fill="white"/>
</clipPath>
</defs>
</svg>
